REM REPLAYGAIN_ALBUM_GAIN "-8.50 dB"
REM REPLAYGAIN_ALBUM_PEAK "0.987"
FILE "album.flac" FLAC
  TRACK 01 AUDIO
    TITLE "Phase One"
    INDEX 01 00:00:00
    REM REPLAYGAIN_TRACK_GAIN "-7.00 dB"
    REM REPLAYGAIN_TRACK_PEAK "0.910"
  TRACK 02 AUDIO
    TITLE "Phase Two"
    INDEX 01 02:00:00
    REM REPLAYGAIN_TRACK_GAIN "-6.00 dB"
    REM REPLAYGAIN_TRACK_PEAK "0.920"
  TRACK 03 AUDIO
    TITLE "Phase Three"
    INDEX 01 04:00:00
